<?xml version="1.0" encoding="utf-8"?>
<!-- Generator: Adobe Illustrator 19.2.1, SVG Export Plug-In . SVG Version: 6.00 Build 0)  -->
<svg version="1.1" id="layer" xmlns="http://www.w3.org/2000/svg" xmlns:xlink="http://www.w3.org/1999/xlink" x="0px" y="0px"
	 viewBox="0 0 652 452" style="enable-background:new 0 0 652 452;" xml:space="preserve">
<style type="text/css">
	.st0{fill:#0074C9;}
	.st1{fill-rule:evenodd;clip-rule:evenodd;fill:#FF9E00;}
</style>
<g>
	<path class="st0" d="M20.3,343.6l8.1-4.8c2.7,5.4,7.6,8.3,13.2,8.3c5,0,8.5-1.9,8.5-5.6c0-3.7-3.5-5.3-9.9-7.1
		c-8.7-2.4-17.9-4.7-17.9-15c0-9.1,7.1-14.6,17.7-14.6c10.1,0,16,4.8,19.5,10.1l-7.5,5.7c-2.6-4.2-7.3-7-12-7c-4.6,0-7.1,2-7.1,4.9
		c0,3.9,3.6,5.3,10.1,7.1c8.6,2.3,17.7,5,17.7,15.2c0,7.9-6,14.9-19.6,14.9C30.6,355.6,23.9,350.6,20.3,343.6 M62.7,354.7l17.3-49.2
		h10.3l17.3,49.2H96.7l-3.7-10.9H76.4l-3.8,10.9H62.7z M79.1,336h11.5L85,319.3h-0.1L79.1,336z M113.1,354.7v-49h17.8
		c10.4,0,20,2.8,20,15.7c0,13.2-10.3,15.9-20.1,15.9h-6.9v17.4H113.1z M123.8,329h7.3c6.7,0,9.2-2.6,9.2-7.3c0-4.6-2.4-7.1-9.2-7.1
		h-7.3V329z M174.2,354.7v-49h32.4v9H185v11.9h15.4v8.5H185v19.5H174.2z M211.6,306h10.7v8.6h-10.7V306z M211.7,319.4h10.6v35.3
		h-10.6V319.4z M228.9,337.1c0-13.7,10.5-18.4,17.8-18.4c7.3,0,16.2,3.6,16.2,19.7v1.6h-23.4c0.5,5.8,3.8,8.1,8.2,8.1
		c4.2,0,8.1-2.1,10.5-4.2l4.1,6.4c-4.1,3.5-9.2,5.3-15.4,5.3C237.7,355.4,228.9,350.7,228.9,337.1 M253.3,333.6
		c-0.5-5-2.8-7.4-6.8-7.4c-3.3,0-6.2,2.2-7,7.4H253.3z M269.4,305.7H280v49h-10.6V305.7z M286.6,337.4c0-12.2,5.6-18.7,13.7-18.7
		c4.8,0,8.2,1.7,10.7,5.2v-18.2h10.7v40.4c0,4.2,0.3,6.8,1.1,8.6h-10.9c-0.5-0.9-0.8-3.5-0.8-5.3c-2.3,3.2-5.6,5.8-10.9,5.8
		C292.1,355.2,286.6,349.5,286.6,337.4 M311,343.8v-13.1c-2.3-2.2-4.2-3.2-7-3.2c-4.4,0-6.8,3.4-6.8,9.8c0,5.9,2.1,9.9,6.9,9.9
		C306.8,347.2,309.3,345.6,311,343.8 M326.4,360c0-3.4,2.8-5.8,6.1-7.1c-1.5-1-2.4-2.4-2.4-4.2c0-2.9,2.3-5.4,5.1-7.2
		c-3.8-2.3-5.8-5.9-5.8-10.1c0-7.1,5.7-12.7,15.9-12.7c5.2,0,9.2,1.5,11.9,3.8c2.4-2.1,6.2-3.5,9.1-3.6v8.1c-1.3,0-3.4,0.1-6,0.8
		c0.4,0.9,0.7,2.1,0.7,3.5c0,7.2-5.5,12.6-15.6,12.6c-2,0-3.8-0.3-5.4-0.6c-0.7,0.6-1.2,1.1-1.2,1.8c0,1.3,1.4,1.6,4,1.7l5.3,0.3
		c12.1,0.5,17,3.4,17,10c0,7.3-8.5,10.8-20.3,10.8C330.9,368,326.4,365,326.4,360 M355.6,359c0-2.2-1.1-3.2-9.4-3.6l-5.6-0.3
		l-2.3-0.2c-1.3,0.9-2,2-2,3.2c0,3.1,2.8,4.5,10.1,4.5C351.8,362.6,355.6,361.3,355.6,359 M351.4,331.7c0-3.6-2-6.3-6-6.3
		c-3.9,0-6,2.7-6,6.3c0,3.6,2.2,6.3,6,6.3C349.3,338,351.4,335.3,351.4,331.7 M371.3,305.6h10.6v49.1h-10.6V305.6z M388.1,345.7
		c0-8.2,6.9-12.7,22.4-13.9v-0.9c0-2.6-1.3-4.2-4.8-4.2c-4.5,0-8.4,1.9-11.6,4.4l-4.5-6.1c3.5-3.2,8.8-6.3,17.6-6.3
		c9.7,0,13.6,4.8,13.6,13.8v13.6c0,4.2,0.3,6.8,1,8.6h-10.6c-0.5-1.5-0.8-3.2-0.8-5.2c-3.2,3.6-7.1,5.7-12.3,5.7
		C392.8,355.2,388.1,351.7,388.1,345.7 M410.5,344.2v-6.6c-8.4,0.9-12,3-12,6.2c0,2.3,1.6,3.4,3.9,3.4
		C406.2,347.2,408.8,346,410.5,344.2 M426.1,350l4.2-6c3.2,2.8,8,4.6,12.3,4.6c3.3,0,5.6-1.1,5.6-3.4c0-2.5-1.9-3.4-6.7-4.2
		c-6.7-1.2-13.8-2.8-13.8-11.1c0-7.1,5.8-11.2,13.7-11.2c7.2,0,11.6,1.9,15.5,5l-4.2,6c-3.6-2.5-7.1-3.8-10.4-3.8
		c-3,0-4.8,1.2-4.8,3.1c0,2.1,1.9,3,6.3,3.8c7,1.2,14.3,2.8,14.3,10.8c0,8.5-7.4,11.9-15.6,11.9C434.9,355.4,429.7,353.1,426.1,350
		 M461.2,350l4.2-6c3.2,2.8,8,4.6,12.3,4.6c3.3,0,5.6-1.1,5.6-3.4c0-2.5-1.9-3.4-6.7-4.2c-6.7-1.2-13.8-2.8-13.8-11.1
		c0-7.1,5.8-11.2,13.7-11.2c7.2,0,11.6,1.9,15.5,5l-4.2,6c-3.6-2.5-7.1-3.8-10.4-3.8c-3.1,0-4.8,1.2-4.8,3.1c0,2.1,1.9,3,6.3,3.8
		c7,1.2,14.3,2.8,14.3,10.8c0,8.5-7.4,11.9-15.6,11.9C469.9,355.4,464.7,353.1,461.2,350"/>
	<path class="st1" d="M543.5,358.1c1.2,3.7,3.5,11.9,2.3,15.8c-1.2,3.8-4.9,1.5-6.3,0c-0.5-0.5-0.8-0.6-1.1-1
		c-0.9-0.8-3.2-3.6-3.9-4.5l-3.4-5.1c-0.3-0.5-0.5-0.8-0.8-1.3l-5.1-9.5c-1.3-3-2.6-5.8-3.7-8.9c-0.6-1.6-1.6-4.7-2.1-6.3
		c-0.7-2.7-4.3-17.3,2.7-14.2c1,0.4,1.7,1.1,2.4,1.8c0.7,0.6,2.6,2.5,3.1,3.2c0.7,0.9,2.2,2.8,2.7,3.6c0.4,0.7,3,4.2,3.2,5l-2.2-2.7
		c-3.5-4.2-7.1-5.1-6.1,1.6c0.5,3.1,1,5,1.9,7.9l1.4,3.6c0.4,1.2,1,2.2,1.5,3.3c2.1,4.7,5.5,10.7,9.3,14.1c3.9,3.4,4.7,0.2,4.2-3.7
		l-0.8-4C543.1,356.9,543.4,357.8,543.5,358.1 M594.1,295c-0.2-0.6-1.2-2-1.6-2.7c-4.4-7.1-9.1-13.6-15.1-19.6
		c-0.3-0.4-0.6-0.6-1.1-1c-1.5-1.5-4.5-3.7-6.5-4.5c-0.6-0.3-1.3-0.4-2-0.5h-1.4c-1.3,0.2-2.3,0.8-3,1.7c-1.3,2-1.6,4-1.8,6.9
		c-0.2,1.4,0.2,6.7,0.4,8.1c0.5,3.6,2,10.4,3.1,14.2c1,3.1,2.1,6.8,3.2,9.8c1.5,4.3,3.2,8.2,4.9,12.5c0.4,1.1,0.9,2,1.3,3
		c1.4,3.6,5.3,11.3,7,14.7c1.4,2.7,4.7,8.5,6.3,11l3.3,5.3c2,3.3,5.8,8.2,8.3,11.2c1.7,2.1,3.3,3.8,5.2,5.7c2.4,2.4,10.2,9.1,13.8,4
		c1.5-2.2,1.4-4.4,1.8-6.9c0.2-1.5-0.1-2.8-0.1-4.2c0-1.1-0.2-2.7-0.4-3.8c-0.3-2-1.3-7.3-1.7-9.1l-1.4-5.1c-0.2-1-2.6-9.1-3.3-9.8
		l1,4.2c0.8,3.4,3,15.7-2.2,15.7c-2,0.1-3.9-1.4-5.3-2.4c-1.4-1.1-3.3-3.1-4.4-4.5c-0.9-1.1-2.1-2.4-2.9-3.6l-2.1-3
		c-1.1-1.5-2.1-3-3-4.6c-0.6-1.1-1.2-2.2-1.9-3.2c-1.5-2.3-3.8-7.4-5.2-10.1l-2.4-5.3c-0.6-1.1-3.3-8.1-3.7-9.2l-1.3-3.9
		c-1.2-3.6-2.4-8.6-2.9-12.4c-0.4-2.9-0.6-6.7,0.5-9c0.2-0.5,0.7-1.2,1.1-1.4c3.8-2.4,10.8,5.9,13.1,9
		C592.2,292.6,593.7,294.7,594.1,295 M573.8,348.1l1.2,6c0.3,2.1,0.4,5.1-0.3,6.6c-1.9,4-7.6-2.2-8.6-3.5c-1.1-1.4-1.9-2.3-3.2-4.1
		c-0.5-0.7-1-1.5-1.5-2.2c-1-1.5-1.8-3-2.7-4.6c-0.5-0.9-0.9-1.4-1.3-2.4l-3.1-6.1c-1-2.1-1.9-4.3-2.7-6.5c-1.6-4.1-2.5-7-3.5-11.3
		c-0.6-2.4-1.4-7.3-0.1-9.6c1.1-2.2,3.6-0.9,4.9,0.1c3.8,2.9,6.5,7.4,7,7.8c-0.1-0.6-0.8-1.4-1-1.9l-2.5-3.8c-0.8-1.2-3-4.3-4-5.4
		c-1.6-2-2-2.3-3.3-3.8c-2.1-2.6-8.1-7.9-11.1-4.8c-2.1,2.2-1.7,7.8-1.4,10.6c1.3,8.6,4.3,18.5,7.9,26.6c1.9,4.4,2.9,6.5,5,10.7
		c2.3,4.5,4,7.4,6.8,12.1c0.8,1.3,1.6,2.6,2.4,3.7l2.6,3.7c0.9,1.2,3.2,4.1,4.3,5.2c2.1,2.2,6.1,6.3,9.6,6.1
		c4.9-0.3,3.6-10.8,2.9-14.4c-0.7-3.3-2.2-9.8-3.3-12.5l-0.5-1.7C574,348.3,574,348.4,573.8,348.1 M590.6,308.6
		c0,6,8.5,22.3,10.8,22.3c1.8,0-0.2-6.3-0.5-7.1l-1.9-4.9c-0.3-0.6-0.5-0.9-0.8-1.5c-1.5-3-3.1-5.8-5.3-8.3
		C592.6,308.5,590.6,306.7,590.6,308.6 M558.2,328.3c0,3.3,5.3,14.4,7.1,14.4c2,0-1.7-8.3-2.3-9.6c-0.7-1.2-2.7-4.6-3.8-5.2
		C558.8,327.8,558.2,327.9,558.2,328.3 M532.5,344.2c0,1.4,1.2,4,1.7,5c0.1,0.4,0.2,0.7,0.5,1.1c0.3,0.5,1.3,2.2,1.8,2.3
		c1.7,0.5-1.2-6.4-3-8.3C533.3,344.1,532.5,343.6,532.5,344.2 M573.8,348.1v-0.5h-0.2C573.6,348.4,573.6,347.8,573.8,348.1
		 M559.7,318.3v0.2l0.2-0.2H559.7z M594.2,295H594H594.2z M594.2,295.4V295V295.4z"/>
</g>
</svg>
